<?xml version="1.0" standalone="no"?>
<!DOCTYPE svg PUBLIC "-//W3C//DTD SVG 20010904//EN"
 "http://www.w3.org/TR/2001/REC-SVG-20010904/DTD/svg10.dtd">
<svg version="1.0" xmlns="http://www.w3.org/2000/svg"
 width="134.000000pt" height="102.000000pt" viewBox="0 0 134.000000 102.000000"
 preserveAspectRatio="xMidYMid meet">

<g transform="translate(0.000000,102.000000) scale(0.100000,-0.100000)"
fill="#000000" stroke="none">
<path d="M646 995 c-84 -30 -86 -68 -3 -92 86 -25 218 -174 231 -261 4 -30 1
-36 -32 -55 -20 -12 -51 -22 -68 -23 -27 -1 -102 -40 -139 -72 -5 -5 -27 4
-52 22 l-43 30 -103 -12 c-56 -6 -112 -15 -124 -18 -19 -5 -23 -2 -23 14 0 12
-5 33 -12 48 -12 26 -13 27 -93 20 -44 -3 -104 -6 -132 -6 -53 0 -53 0 -53
-31 l0 -31 114 7 113 7 6 -30 c3 -16 9 -104 13 -196 l7 -166 -126 0 -127 0 0
-30 0 -30 113 1 c151 0 190 8 197 37 5 22 9 20 93 -44 l88 -68 147 -9 c168
-10 317 -4 361 15 67 29 267 221 320 309 53 87 -11 163 -98 115 -23 -13 -27
-11 -71 35 -26 27 -55 49 -65 49 -10 0 -33 12 -52 26 -19 14 -46 29 -61 33
-24 6 -27 13 -30 52 -4 65 19 83 112 87 92 5 173 -12 217 -43 18 -14 37 -21
41 -17 4 4 10 28 14 52 13 104 -76 186 -201 184 -64 -1 -88 -10 -146 -55 -20
-16 -39 -29 -41 -29 -3 0 -10 17 -16 39 -15 49 -96 126 -148 140 -51 14 -80
13 -128 -4z m154 -74 c33 -24 70 -79 70 -105 0 -17 -9 -12 -48 30 -26 28 -59
59 -74 68 -16 10 -28 23 -28 28 0 14 50 1 80 -21z m381 -82 c39 -13 79 -46 79
-65 0 -11 -6 -11 -27 -3 -16 6 -70 13 -120 16 -51 3 -93 9 -93 13 0 4 10 14
23 23 42 27 87 33 138 16z m-256 -299 c3 -5 14 -10 24 -10 10 0 35 -13 57 -30
21 -16 46 -30 54 -30 13 0 70 -60 70 -73 0 -17 -36 -13 -61 6 -29 21 -38 22
-195 19 -211 -4 -247 6 -164 43 22 10 40 22 40 28 0 5 14 7 33 3 24 -5 41 -1
58 11 57 42 74 49 84 33z m-351 -104 c64 -68 109 -80 271 -72 180 9 223 -3
153 -41 -28 -15 -59 -18 -202 -18 -149 0 -170 -2 -180 -17 -20 -33 5 -38 185
-41 196 -2 154 -14 370 102 53 28 98 48 102 45 9 -10 -11 -53 -42 -91 -31 -38
-222 -207 -255 -226 -15 -9 -82 -11 -235 -10 -243 3 -214 -6 -351 108 l-90 75
0 99 0 99 68 11 c165 27 159 28 206 -23z"/>
<path d="M154 485 c-4 -9 -2 -21 4 -27 15 -15 44 -1 40 19 -4 23 -36 29 -44 8z"/>
</g>
</svg>
